<?xml version="1.0" standalone="no"?>
<!DOCTYPE svg PUBLIC "-//W3C//DTD SVG 20010904//EN"
 "http://www.w3.org/TR/2001/REC-SVG-20010904/DTD/svg10.dtd">
<svg version="1.0" xmlns="http://www.w3.org/2000/svg"
 width="500.000000pt" height="500.000000pt" viewBox="0 0 500.000000 500.000000"
 preserveAspectRatio="xMidYMid meet">

<g transform="translate(0.000000,500.000000) scale(0.100000,-0.100000)"
fill="#000000" stroke="none">
<path d="M1443 4110 c-123 -29 -243 -162 -243 -269 0 -41 0 -41 -38 -41 -46 0
-134 -42 -162 -77 -36 -46 -46 -99 -28 -150 l16 -45 -41 -42 c-52 -51 -196
-258 -197 -281 0 -5 -7 -23 -16 -40 -102 -190 -114 -552 -25 -736 12 -24 21
-47 21 -52 0 -5 12 -32 26 -60 36 -73 52 -160 40 -222 -5 -27 -10 -93 -10
-145 -1 -79 3 -102 21 -135 27 -51 68 -90 115 -109 20 -9 39 -20 42 -25 4 -5
-5 -26 -19 -47 -21 -31 -25 -48 -25 -108 1 -119 48 -188 165 -243 58 -27 65
-28 225 -28 146 0 174 3 243 24 69 22 83 23 114 12 85 -31 393 -40 570 -16
207 27 335 72 419 148 49 44 53 46 140 55 49 6 159 8 244 5 194 -7 427 16 545
54 83 26 188 78 240 117 25 19 48 24 131 30 113 8 236 34 338 73 57 21 70 31
82 59 21 51 18 55 -28 29 -72 -40 -241 -84 -364 -96 -63 -5 -119 -7 -125 -4
-6 4 -27 -6 -47 -23 -53 -41 -136 -87 -215 -117 -120 -45 -233 -57 -562 -59
l-300 -2 4 44 c4 57 -15 125 -46 158 -46 50 -67 10 -33 -64 42 -88 11 -184
-78 -240 -130 -82 -314 -118 -603 -116 -222 2 -293 13 -337 54 -20 19 -23 30
-20 92 l3 71 55 38 c175 121 479 213 685 209 91 -2 93 -2 97 22 2 15 25 33 79
62 126 68 207 125 283 200 148 146 223 298 247 501 7 66 11 73 58 123 69 73
133 174 209 325 71 143 81 150 132 90 55 -68 89 -221 70 -324 -27 -148 -117
-290 -281 -441 -24 -22 -14 -48 18 -48 33 0 137 100 196 188 97 146 140 270
136 392 -2 47 2 62 20 81 30 31 91 160 135 281 76 212 108 248 168 192 38 -36
60 -79 89 -174 21 -67 24 -93 23 -240 -1 -159 -2 -170 -39 -305 -49 -182 -50
-190 -27 -260 11 -33 23 -88 27 -122 4 -38 13 -67 24 -77 9 -9 51 -22 92 -30
82 -16 229 -66 300 -102 l47 -23 5 27 c7 34 -16 53 -98 82 -33 12 -67 25 -76
30 -23 12 -159 48 -194 52 -24 2 -31 8 -33 28 -2 14 -14 68 -27 121 -25 103
-25 100 15 239 90 307 55 652 -80 792 -42 43 -51 48 -91 48 -34 0 -51 -6 -66
-22 -38 -43 -70 -103 -106 -203 -52 -148 -113 -285 -126 -285 -5 0 -12 15 -16
33 -10 45 -49 110 -86 141 -43 36 -96 36 -131 -1 -29 -31 -58 -85 -58 -106 0
-8 -6 -19 -13 -25 -10 -9 -15 6 -25 71 -16 103 -63 203 -111 235 -50 33 -103
30 -134 -8 -14 -16 -29 -39 -32 -50 -5 -17 -10 -19 -21 -9 -8 6 -14 16 -14 21
0 24 -98 152 -168 220 -85 83 -173 144 -257 179 -30 12 -55 28 -55 35 0 19
-58 83 -91 100 -15 7 -39 14 -52 14 -23 0 -24 3 -23 59 1 53 -2 63 -29 91 -43
46 -77 60 -139 60 -66 0 -102 -12 -138 -47 -25 -24 -29 -25 -45 -11 -58 51
-139 61 -210 27 l-43 -21 -45 40 c-62 54 -132 71 -212 52z m151 -80 c19 -14
44 -41 56 -62 28 -50 58 -59 83 -24 49 68 118 70 193 6 25 -22 49 -40 53 -40
5 0 21 16 35 35 50 65 130 84 192 46 39 -24 48 -57 29 -111 -28 -78 -24 -84
50 -81 47 2 100 -27 117 -65 10 -21 9 -31 -5 -57 -27 -50 -74 -77 -135 -77
-50 0 -52 -1 -72 -40 -24 -46 -66 -76 -121 -85 -40 -7 -65 2 -112 41 -38 32
-62 30 -83 -5 -31 -52 -110 -71 -116 -28 -2 14 -11 23 -26 25 -18 3 -26 -5
-41 -41 -33 -76 -135 -136 -231 -137 -58 0 -89 14 -123 57 -26 33 -49 29 -106
-20 -56 -48 -105 -67 -172 -67 -89 0 -133 77 -79 135 13 14 32 25 42 25 29 0
58 19 58 38 0 9 -14 37 -31 62 -24 36 -29 52 -25 79 10 66 74 104 165 99 51
-3 55 -1 62 22 4 14 7 47 8 73 1 26 10 64 20 85 24 47 86 106 131 127 51 22
139 15 184 -15z m1099 -496 c133 -109 268 -325 271 -433 1 -33 0 -34 -55 -45
-77 -16 -161 -69 -220 -139 -82 -98 -140 -245 -120 -301 21 -53 44 -38 56 34
4 25 23 78 43 119 65 133 188 231 290 231 39 0 43 -2 38 -20 -3 -11 -8 -29
-11 -39 -3 -10 -17 -22 -31 -25 -41 -11 -148 -126 -183 -197 -58 -120 -89
-270 -58 -282 26 -10 38 10 62 101 13 50 38 118 54 151 34 66 129 167 144 152
5 -5 7 -70 5 -147 -3 -118 -7 -145 -25 -179 -41 -78 -107 -125 -203 -146 -54
-12 -63 -19 -54 -43 16 -43 125 -21 217 43 31 22 57 38 57 35 0 -2 -13 -32
-29 -67 -53 -116 -163 -240 -292 -327 -64 -44 -227 -130 -245 -130 -6 0 -17
-7 -24 -15 -8 -10 -30 -15 -64 -15 -133 0 -358 -56 -506 -126 l-94 -45 -151
37 c-139 34 -161 37 -310 38 -138 1 -165 -2 -194 -17 -33 -19 -34 -19 -85 9
-129 68 -157 142 -120 318 12 58 13 88 6 123 -9 42 -7 53 18 110 16 35 31 63
33 63 3 0 3 -28 0 -62 -3 -48 0 -71 14 -98 53 -102 192 -106 254 -8 31 50 23
135 -17 185 -41 51 -94 76 -159 76 -67 0 -133 -36 -160 -87 -11 -20 -22 -36
-26 -36 -10 0 -78 184 -95 258 -22 94 -14 309 16 411 24 86 77 204 121 273
l31 48 38 -34 c38 -35 92 -56 141 -56 45 0 126 29 176 64 l49 33 29 -22 c91
-74 256 -49 369 55 25 23 50 39 56 35 20 -13 98 5 136 31 l37 26 38 -21 c47
-27 129 -28 185 -2 22 10 56 37 76 60 23 27 43 41 59 41 48 0 127 47 160 94
l32 45 77 -40 c42 -22 107 -64 143 -95z m429 -234 c74 -58 111 -301 63 -416
-18 -44 -95 -147 -103 -139 -9 8 -30 129 -31 172 -1 18 7 48 16 68 16 34 16
36 -6 59 -12 13 -28 49 -35 80 -12 51 -12 63 5 118 11 33 22 64 25 69 9 15 40
10 66 -11z m-1997 -945 c14 -13 25 -35 25 -48 0 -49 -72 -79 -108 -44 -23 24
-20 77 7 99 31 24 47 23 76 -7z m-90 -160 c0 -30 -39 -27 -43 3 -3 20 0 23 20
20 15 -2 23 -10 23 -23z m325 -505 c104 -12 270 -49 270 -61 0 -5 -9 -13 -19
-19 -39 -20 -59 -70 -57 -140 1 -36 6 -77 10 -92 8 -26 6 -28 -51 -45 -43 -13
-92 -18 -193 -18 -170 0 -217 12 -281 74 -84 82 -89 172 -13 245 65 63 150 77
334 56z"/>
<path d="M1757 2562 c-27 -17 -44 -48 -33 -60 11 -10 81 36 81 54 0 24 -15 26
-48 6z"/>
<path d="M1892 2479 c-66 -9 -143 -54 -156 -92 -15 -42 4 -54 51 -32 57 28
132 31 193 9 51 -18 52 -18 66 1 7 11 18 25 24 32 42 49 -61 97 -178 82z"/>
<path d="M1433 2204 c-3 -8 -1 -20 6 -27 14 -14 47 15 37 32 -10 16 -36 13
-43 -5z"/>
<path d="M1324 2185 c-7 -18 3 -35 21 -35 21 0 28 19 15 35 -16 19 -29 19 -36
0z"/>
<path d="M1660 2060 c-8 -5 -32 -10 -52 -10 -20 0 -74 -12 -119 -26 -65 -20
-93 -25 -134 -19 -41 5 -56 3 -69 -10 -18 -18 -13 -35 10 -35 12 0 14 -7 8
-32 -13 -55 -6 -101 21 -128 20 -20 37 -25 92 -28 58 -3 73 0 102 20 46 31 68
63 95 139 20 54 30 67 62 84 22 11 39 27 39 35 0 18 -34 24 -55 10z m-90 -83
c0 -29 -51 -113 -79 -130 -33 -19 -83 -22 -112 -7 -33 18 -19 110 17 110 10 0
15 -8 14 -22 -4 -40 0 -48 20 -48 11 0 22 6 24 13 17 65 22 72 61 83 52 16 55
16 55 1z"/>
</g>
</svg>
